<svg width="96" height="86" viewBox="0 0 96 86" fill="none" xmlns="http://www.w3.org/2000/svg">
<path d="M96 38.1411C96 32.5871 91.4815 28.0685 85.9274 28.0685C80.3734 28.0685 75.8548 32.5871 75.8548 38.1411C75.8548 40.6677 76.7921 42.9778 78.3338 44.7477L67.9213 54.2997L54.6415 26.8554L62.4031 17.7389L48.0545 0.885254L33.7065 17.7394L41.1225 26.4501L27.9373 54.1434L17.671 44.7424C19.2105 42.973 20.1456 40.665 20.1456 38.1411C20.1456 32.5871 15.6271 28.0685 10.073 28.0685C4.51855 28.0685 0 32.5871 0 38.1411C0 43.2876 3.88145 47.5426 8.8704 48.1395L11.9568 85.1148H84.0436L87.13 48.1395C92.1185 47.5426 96 43.2876 96 38.1411Z" fill="#FFA600"/>
</svg>
